# WaveFront *.obj file (generated by Autodesk ATF)

mtllib Pole.mtl

g Solid1

v -0.500000 0.000000 0.000000
v -0.500000 59.999998 0.000000
v -0.404509 0.000000 -0.293893
v -0.404509 0.000000 0.293893
v -0.404509 59.999998 -0.293893
v -0.404509 59.999998 0.293893
v -0.154508 0.000000 -0.475528
v -0.154508 0.000000 0.475528
v -0.154508 59.999998 -0.475528
v -0.154508 59.999998 0.475528
v 0.154508 0.000000 -0.475528
v 0.154508 0.000000 0.475528
v 0.154508 59.999998 -0.475528
v 0.154508 59.999998 0.475528
v 0.404509 0.000000 -0.293893
v 0.404509 0.000000 0.293893
v 0.404509 59.999998 -0.293893
v 0.404509 59.999998 0.293893
v 0.500000 0.000000 0.000000
v 0.500000 59.999998 0.000000
vt -152.399994 3.989823 0.000000
vt -152.399994 3.191858 0.000000
vt -152.399994 2.393894 0.000000
vt -152.399994 1.595929 0.000000
vt -152.399994 0.797965 0.000000
vt -152.399994 0.000000 0.000000
vt -152.399994 -0.797965 0.000000
vt -152.399994 -1.595929 0.000000
vt -152.399994 -2.393894 0.000000
vt -152.399994 -3.191858 0.000000
vt -0.000000 -3.989823 0.000000
vt -0.000000 -3.191858 0.000000
vt -0.000000 -2.393894 0.000000
vt -0.000000 -1.595929 0.000000
vt -0.000000 -0.797965 0.000000
vt -0.000000 0.000000 0.000000
vt -0.000000 0.797965 0.000000
vt -0.000000 1.595929 0.000000
vt -0.000000 2.393894 0.000000
vt -0.000000 3.191858 0.000000
vt -0.000000 3.989823 0.000000
vt -152.399994 -3.989823 0.000000
vt -0.000000 -1.270000 0.000000
vt 0.746487 -1.027452 0.000000
vt 1.207842 -0.392452 0.000000
vt 1.207842 0.392452 0.000000
vt 0.746487 1.027452 0.000000
vt -0.000000 1.270000 0.000000
vt -0.746487 1.027452 0.000000
vt -1.207842 0.392452 0.000000
vt -1.207842 -0.392452 0.000000
vt -0.746487 -1.027452 0.000000
vt 0.000000 -1.270000 0.000000
vt 0.746487 -1.027452 0.000000
vt 1.207842 -0.392452 0.000000
vt 1.207842 0.392452 0.000000
vt 0.746487 1.027452 0.000000
vt 0.000000 1.270000 0.000000
vt -0.746487 1.027452 0.000000
vt -1.207842 0.392452 0.000000
vt -1.207842 -0.392452 0.000000
vt -0.746487 -1.027452 0.000000
vn -2.540000 0.000000 0.000000
vn -2.054903 0.000000 -1.492975
vn -0.784903 0.000000 -2.415684
vn 0.784903 0.000000 -2.415684
vn 2.054903 0.000000 -1.492975
vn 2.540000 0.000000 0.000000
vn 2.054903 0.000000 1.492975
vn 0.784903 0.000000 2.415684
vn -0.784903 0.000000 2.415684
vn -2.054903 0.000000 1.492975
vn -2.540000 0.000000 0.000000
vn -2.054903 0.000000 1.492975
vn -0.784903 0.000000 2.415684
vn 0.784903 0.000000 2.415684
vn 2.054903 0.000000 1.492975
vn 2.540000 0.000000 0.000000
vn 2.054903 0.000000 -1.492975
vn 0.784903 0.000000 -2.415684
vn -0.784903 0.000000 -2.415684
vn -2.054903 0.000000 -1.492975
vn -2.540000 0.000000 0.000000
vn -2.540000 0.000000 0.000000
vn 0.000000 -2.540000 0.000000
vn 0.000000 -2.540000 0.000000
vn 0.000000 -2.540000 0.000000
vn 0.000000 -2.540000 0.000000
vn 0.000000 -2.540000 0.000000
vn 0.000000 -2.540000 0.000000
vn 0.000000 -2.540000 0.000000
vn 0.000000 -2.540000 0.000000
vn 0.000000 -2.540000 0.000000
vn 0.000000 -2.540000 0.000000
vn 0.000000 2.540000 0.000000
vn 0.000000 2.540000 0.000000
vn 0.000000 2.540000 0.000000
vn 0.000000 2.540000 0.000000
vn 0.000000 2.540000 0.000000
vn 0.000000 2.540000 0.000000
vn 0.000000 2.540000 0.000000
vn 0.000000 2.540000 0.000000
vn 0.000000 2.540000 0.000000
vn 0.000000 2.540000 0.000000
usemtl 191,191,191
f 5/2/2 3/20/20 2/1/1
f 2/1/1 3/20/20 1/21/21
f 2/22/22 1/11/11 6/10/10
f 6/10/10 1/11/11 4/12/12
f 6/10/10 4/12/12 8/13/13
f 5/2/2 9/3/3 3/20/20
f 3/20/20 9/3/3 7/19/19
f 7/19/19 9/3/3 13/4/4
f 7/19/19 13/4/4 11/18/18
f 11/18/18 13/4/4 17/5/5
f 11/18/18 17/5/5 15/17/17
f 15/17/17 17/5/5 20/6/6
f 15/17/17 20/6/6 19/16/16
f 19/16/16 20/6/6 18/7/7
f 19/16/16 18/7/7 16/15/15
f 16/15/15 18/7/7 14/8/8
f 16/15/15 14/8/8 12/14/14
f 12/14/14 14/8/8 10/9/9
f 12/14/14 10/9/9 8/13/13
f 8/13/13 10/9/9 6/10/10
f 3/24/24 19/28/28 1/23/23
f 1/23/23 19/28/28 16/29/29
f 1/23/23 16/29/29 4/32/32
f 4/32/32 16/29/29 12/30/30
f 4/32/32 12/30/30 8/31/31
f 19/28/28 3/24/24 15/27/27
f 15/27/27 3/24/24 7/25/25
f 15/27/27 7/25/25 11/26/26
f 6/34/34 20/38/38 2/33/33
f 2/33/33 20/38/38 17/39/39
f 2/33/33 17/39/39 5/42/42
f 5/42/42 17/39/39 13/40/40
f 5/42/42 13/40/40 9/41/41
f 20/38/38 6/34/34 18/37/37
f 18/37/37 6/34/34 10/35/35
f 18/37/37 10/35/35 14/36/36

# 20 vertices
# 42 texture params
# 42 normals
# 36 facets

# 1 groups
